<mxfile host="app.diagrams.net" modified="2021-07-19T01:20:15.259Z" agent="5.0 (Macintosh; Intel Mac OS X 10_15_6) AppleWebKit/537.36 (KHTML, like Gecko) Chrome/91.0.4472.114 Safari/537.36" etag="76l-qEEyA9vw_jD105dK" version="14.9.0" type="github">
  <diagram id="e9DhDae4qt_Jvad4-YHW" name="第 1 页">
    <mxGraphModel dx="1149" dy="2592" grid="0" gridSize="10" guides="1" tooltips="1" connect="1" arrows="1" fold="1" page="1" pageScale="1" pageWidth="1200" pageHeight="1920" math="0" shadow="0">
      <root>
        <mxCell id="0" />
        <mxCell id="1" parent="0" />
        <mxCell id="gbj-Aj7GcS96Cu6Ub37i-30" value="" style="rounded=1;whiteSpace=wrap;html=1;" parent="1" vertex="1">
          <mxGeometry x="1442" y="-1653" width="160" height="263" as="geometry" />
        </mxCell>
        <mxCell id="gbj-Aj7GcS96Cu6Ub37i-33" value="" style="rounded=1;whiteSpace=wrap;html=1;" parent="1" vertex="1">
          <mxGeometry x="1459" y="-1614" width="120" height="60" as="geometry" />
        </mxCell>
        <mxCell id="vF8Mc53fpWhSX6O-4FHy-10" value="摘要始终保持展示" style="text;html=1;align=center;verticalAlign=middle;whiteSpace=wrap;rounded=0;fontStyle=0" parent="1" vertex="1">
          <mxGeometry x="639" y="-1537" width="110" height="50" as="geometry" />
        </mxCell>
        <mxCell id="vF8Mc53fpWhSX6O-4FHy-37" style="edgeStyle=orthogonalEdgeStyle;rounded=0;orthogonalLoop=1;jettySize=auto;elbow=vertical;html=1;exitX=1;exitY=0.5;exitDx=0;exitDy=0;entryX=0;entryY=0.5;entryDx=0;entryDy=0;curved=1;" parent="1" source="vF8Mc53fpWhSX6O-4FHy-11" target="vF8Mc53fpWhSX6O-4FHy-26" edge="1">
          <mxGeometry relative="1" as="geometry" />
        </mxCell>
        <mxCell id="vF8Mc53fpWhSX6O-4FHy-63" value="部分数据用于展示" style="edgeLabel;html=1;align=center;verticalAlign=middle;resizable=0;points=[];fontSize=5;" parent="vF8Mc53fpWhSX6O-4FHy-37" vertex="1" connectable="0">
          <mxGeometry x="0.0734" relative="1" as="geometry">
            <mxPoint as="offset" />
          </mxGeometry>
        </mxCell>
        <mxCell id="vF8Mc53fpWhSX6O-4FHy-38" style="edgeStyle=orthogonalEdgeStyle;curved=1;rounded=0;orthogonalLoop=1;jettySize=auto;html=1;exitX=1;exitY=0.5;exitDx=0;exitDy=0;entryX=0;entryY=0.75;entryDx=0;entryDy=0;" parent="1" source="vF8Mc53fpWhSX6O-4FHy-11" target="vF8Mc53fpWhSX6O-4FHy-27" edge="1">
          <mxGeometry relative="1" as="geometry" />
        </mxCell>
        <mxCell id="vF8Mc53fpWhSX6O-4FHy-64" value="&lt;font style=&quot;font-size: 9px&quot;&gt;部分用于搜索&lt;/font&gt;" style="edgeLabel;html=1;align=center;verticalAlign=middle;resizable=0;points=[];fontSize=5;" parent="vF8Mc53fpWhSX6O-4FHy-38" vertex="1" connectable="0">
          <mxGeometry x="0.0149" relative="1" as="geometry">
            <mxPoint as="offset" />
          </mxGeometry>
        </mxCell>
        <mxCell id="vF8Mc53fpWhSX6O-4FHy-39" style="edgeStyle=orthogonalEdgeStyle;curved=1;rounded=0;orthogonalLoop=1;jettySize=auto;html=1;exitX=1;exitY=0.5;exitDx=0;exitDy=0;entryX=0;entryY=0.5;entryDx=0;entryDy=0;" parent="1" source="vF8Mc53fpWhSX6O-4FHy-11" target="vF8Mc53fpWhSX6O-4FHy-29" edge="1">
          <mxGeometry relative="1" as="geometry" />
        </mxCell>
        <mxCell id="vF8Mc53fpWhSX6O-4FHy-55" value="部分数据直接选为摘要" style="edgeLabel;html=1;align=center;verticalAlign=middle;resizable=0;points=[];fontStyle=0" parent="vF8Mc53fpWhSX6O-4FHy-39" vertex="1" connectable="0">
          <mxGeometry x="0.2719" y="3" relative="1" as="geometry">
            <mxPoint y="-8" as="offset" />
          </mxGeometry>
        </mxCell>
        <mxCell id="vF8Mc53fpWhSX6O-4FHy-11" value="特征信息" style="rounded=1;whiteSpace=wrap;html=1;" parent="1" vertex="1">
          <mxGeometry x="502" y="-1242" width="120" height="60" as="geometry" />
        </mxCell>
        <mxCell id="gbj-Aj7GcS96Cu6Ub37i-98" style="edgeStyle=orthogonalEdgeStyle;curved=1;rounded=0;orthogonalLoop=1;jettySize=auto;html=1;exitX=1;exitY=0.5;exitDx=0;exitDy=0;exitPerimeter=0;entryX=0;entryY=0.5;entryDx=0;entryDy=0;entryPerimeter=0;fontSize=19;" parent="1" source="vF8Mc53fpWhSX6O-4FHy-12" target="vF8Mc53fpWhSX6O-4FHy-14" edge="1">
          <mxGeometry relative="1" as="geometry" />
        </mxCell>
        <mxCell id="vF8Mc53fpWhSX6O-4FHy-12" value="&lt;span&gt;特征信息数据&lt;/span&gt;" style="shape=cylinder3;whiteSpace=wrap;html=1;boundedLbl=1;backgroundOutline=1;size=15;" parent="1" vertex="1">
          <mxGeometry x="480" y="-1616" width="60" height="90" as="geometry" />
        </mxCell>
        <mxCell id="vF8Mc53fpWhSX6O-4FHy-13" value="CRF数据" style="shape=cylinder3;whiteSpace=wrap;html=1;boundedLbl=1;backgroundOutline=1;size=15;" parent="1" vertex="1">
          <mxGeometry x="150" y="-1631" width="120" height="120" as="geometry" />
        </mxCell>
        <mxCell id="vF8Mc53fpWhSX6O-4FHy-14" value="患者摘要数据" style="shape=cylinder3;whiteSpace=wrap;html=1;boundedLbl=1;backgroundOutline=1;size=15;" parent="1" vertex="1">
          <mxGeometry x="670" y="-1609" width="34" height="76" as="geometry" />
        </mxCell>
        <mxCell id="vF8Mc53fpWhSX6O-4FHy-24" style="edgeStyle=orthogonalEdgeStyle;rounded=0;orthogonalLoop=1;jettySize=auto;html=1;entryX=0;entryY=0.5;entryDx=0;entryDy=0;exitX=0;exitY=0.5;exitDx=0;exitDy=0;" parent="1" source="vF8Mc53fpWhSX6O-4FHy-11" target="vF8Mc53fpWhSX6O-4FHy-11" edge="1">
          <mxGeometry relative="1" as="geometry" />
        </mxCell>
        <mxCell id="gbj-Aj7GcS96Cu6Ub37i-1" style="edgeStyle=orthogonalEdgeStyle;curved=1;rounded=0;orthogonalLoop=1;jettySize=auto;html=1;exitX=1;exitY=0.5;exitDx=0;exitDy=0;entryX=0;entryY=0.5;entryDx=0;entryDy=0;dashed=1;" parent="1" source="vF8Mc53fpWhSX6O-4FHy-18" target="vF8Mc53fpWhSX6O-4FHy-11" edge="1">
          <mxGeometry relative="1" as="geometry">
            <Array as="points">
              <mxPoint x="208" y="-1245" />
              <mxPoint x="502" y="-1245" />
            </Array>
          </mxGeometry>
        </mxCell>
        <mxCell id="gbj-Aj7GcS96Cu6Ub37i-3" value="&lt;i&gt;用户手动配置&lt;/i&gt;" style="edgeLabel;html=1;align=center;verticalAlign=middle;resizable=0;points=[];" parent="gbj-Aj7GcS96Cu6Ub37i-1" vertex="1" connectable="0">
          <mxGeometry x="0.0226" y="2" relative="1" as="geometry">
            <mxPoint as="offset" />
          </mxGeometry>
        </mxCell>
        <mxCell id="gbj-Aj7GcS96Cu6Ub37i-2" style="edgeStyle=orthogonalEdgeStyle;curved=1;rounded=0;orthogonalLoop=1;jettySize=auto;html=1;exitX=1;exitY=0.5;exitDx=0;exitDy=0;entryX=0;entryY=0.5;entryDx=0;entryDy=0;" parent="1" source="vF8Mc53fpWhSX6O-4FHy-18" target="vF8Mc53fpWhSX6O-4FHy-11" edge="1">
          <mxGeometry relative="1" as="geometry">
            <Array as="points">
              <mxPoint x="208" y="-1191" />
              <mxPoint x="502" y="-1191" />
            </Array>
          </mxGeometry>
        </mxCell>
        <mxCell id="gbj-Aj7GcS96Cu6Ub37i-4" value="规则转换" style="edgeLabel;html=1;align=center;verticalAlign=middle;resizable=0;points=[];" parent="gbj-Aj7GcS96Cu6Ub37i-2" vertex="1" connectable="0">
          <mxGeometry x="0.0592" y="-1" relative="1" as="geometry">
            <mxPoint as="offset" />
          </mxGeometry>
        </mxCell>
        <mxCell id="vF8Mc53fpWhSX6O-4FHy-18" value="CRF数据" style="rounded=1;whiteSpace=wrap;html=1;" parent="1" vertex="1">
          <mxGeometry x="95" y="-1247" width="100" height="60" as="geometry" />
        </mxCell>
        <mxCell id="vF8Mc53fpWhSX6O-4FHy-51" style="edgeStyle=elbowEdgeStyle;rounded=0;orthogonalLoop=1;jettySize=auto;html=1;exitX=1;exitY=0.5;exitDx=0;exitDy=0;entryX=0;entryY=0.5;entryDx=0;entryDy=0;" parent="1" source="vF8Mc53fpWhSX6O-4FHy-26" target="vF8Mc53fpWhSX6O-4FHy-48" edge="1">
          <mxGeometry relative="1" as="geometry" />
        </mxCell>
        <mxCell id="vF8Mc53fpWhSX6O-4FHy-52" value="标签展示在&lt;br&gt;其他搜索功能搜到的&lt;br&gt;患者列表中" style="edgeLabel;html=1;align=center;verticalAlign=middle;resizable=0;points=[];" parent="vF8Mc53fpWhSX6O-4FHy-51" vertex="1" connectable="0">
          <mxGeometry x="0.1261" relative="1" as="geometry">
            <mxPoint x="-35" y="-4" as="offset" />
          </mxGeometry>
        </mxCell>
        <mxCell id="vF8Mc53fpWhSX6O-4FHy-53" style="edgeStyle=elbowEdgeStyle;rounded=0;orthogonalLoop=1;jettySize=auto;html=1;exitX=1;exitY=0.5;exitDx=0;exitDy=0;" parent="1" source="vF8Mc53fpWhSX6O-4FHy-26" target="vF8Mc53fpWhSX6O-4FHy-49" edge="1">
          <mxGeometry relative="1" as="geometry" />
        </mxCell>
        <mxCell id="vF8Mc53fpWhSX6O-4FHy-54" style="edgeStyle=elbowEdgeStyle;rounded=0;orthogonalLoop=1;jettySize=auto;html=1;exitX=1;exitY=0.5;exitDx=0;exitDy=0;entryX=0;entryY=0.5;entryDx=0;entryDy=0;" parent="1" source="vF8Mc53fpWhSX6O-4FHy-26" target="vF8Mc53fpWhSX6O-4FHy-50" edge="1">
          <mxGeometry relative="1" as="geometry" />
        </mxCell>
        <mxCell id="vF8Mc53fpWhSX6O-4FHy-26" value="特征信息词" style="rounded=1;whiteSpace=wrap;html=1;" parent="1" vertex="1">
          <mxGeometry x="792" y="-1302" width="90" height="30" as="geometry" />
        </mxCell>
        <mxCell id="vF8Mc53fpWhSX6O-4FHy-33" style="edgeStyle=orthogonalEdgeStyle;rounded=0;orthogonalLoop=1;jettySize=auto;html=1;exitX=1;exitY=0.5;exitDx=0;exitDy=0;entryX=0;entryY=0.5;entryDx=0;entryDy=0;" parent="1" source="vF8Mc53fpWhSX6O-4FHy-27" target="vF8Mc53fpWhSX6O-4FHy-28" edge="1">
          <mxGeometry relative="1" as="geometry" />
        </mxCell>
        <mxCell id="vF8Mc53fpWhSX6O-4FHy-27" value="特征信息搜索" style="rounded=1;whiteSpace=wrap;html=1;" parent="1" vertex="1">
          <mxGeometry x="792" y="-1232" width="90" height="30" as="geometry" />
        </mxCell>
        <mxCell id="vF8Mc53fpWhSX6O-4FHy-28" value="患者ID+标签，导出" style="rounded=1;whiteSpace=wrap;html=1;" parent="1" vertex="1">
          <mxGeometry x="952" y="-1232" width="130" height="30" as="geometry" />
        </mxCell>
        <mxCell id="vF8Mc53fpWhSX6O-4FHy-29" value="患者摘要" style="rounded=1;whiteSpace=wrap;html=1;" parent="1" vertex="1">
          <mxGeometry x="792" y="-1156" width="90" height="30" as="geometry" />
        </mxCell>
        <mxCell id="vF8Mc53fpWhSX6O-4FHy-35" value="相互影响" style="endArrow=classic;startArrow=classic;html=1;entryX=0.5;entryY=1;entryDx=0;entryDy=0;exitX=0.5;exitY=0;exitDx=0;exitDy=0;" parent="1" source="vF8Mc53fpWhSX6O-4FHy-27" target="vF8Mc53fpWhSX6O-4FHy-26" edge="1">
          <mxGeometry width="50" height="50" relative="1" as="geometry">
            <mxPoint x="837" y="-1242" as="sourcePoint" />
            <mxPoint x="742" y="-1302" as="targetPoint" />
          </mxGeometry>
        </mxCell>
        <mxCell id="vF8Mc53fpWhSX6O-4FHy-42" value="转换规则" style="swimlane;fontStyle=0;childLayout=stackLayout;horizontal=1;startSize=26;horizontalStack=0;resizeParent=1;resizeParentMax=0;resizeLast=0;collapsible=1;marginBottom=0;" parent="1" vertex="1">
          <mxGeometry x="177" y="-1165" width="366" height="85" as="geometry">
            <mxRectangle x="360" y="-104" width="80" height="26" as="alternateBounds" />
          </mxGeometry>
        </mxCell>
        <mxCell id="vF8Mc53fpWhSX6O-4FHy-43" value="符合以下2个条件的变量可被筛选出来：&#xa;1.变量所在访视、表单、变量均不循环，且变量不在标签组和同选项组；&#xa;2.数据类型为字符串可枚举型的变量；&#xa;" style="text;align=left;verticalAlign=top;spacingLeft=4;spacingRight=4;overflow=hidden;rotatable=0;points=[[0,0.5],[1,0.5]];portConstraint=eastwest;fontColor=#7EA6E0;" parent="vF8Mc53fpWhSX6O-4FHy-42" vertex="1">
          <mxGeometry y="26" width="366" height="59" as="geometry" />
        </mxCell>
        <mxCell id="vF8Mc53fpWhSX6O-4FHy-48" value="关键词搜索" style="rounded=1;whiteSpace=wrap;html=1;" parent="1" vertex="1">
          <mxGeometry x="952" y="-1402" width="90" height="30" as="geometry" />
        </mxCell>
        <mxCell id="vF8Mc53fpWhSX6O-4FHy-49" value="全点位搜索" style="rounded=1;whiteSpace=wrap;html=1;" parent="1" vertex="1">
          <mxGeometry x="952" y="-1352" width="90" height="30" as="geometry" />
        </mxCell>
        <mxCell id="vF8Mc53fpWhSX6O-4FHy-50" value="条件树搜索" style="rounded=1;whiteSpace=wrap;html=1;" parent="1" vertex="1">
          <mxGeometry x="952" y="-1302" width="90" height="30" as="geometry" />
        </mxCell>
        <mxCell id="vF8Mc53fpWhSX6O-4FHy-57" value="&lt;h1&gt;&lt;font style=&quot;font-size: 18px&quot;&gt;数据的范围变化：&lt;/font&gt;&lt;/h1&gt;" style="text;html=1;strokeColor=none;fillColor=none;align=center;verticalAlign=middle;whiteSpace=wrap;rounded=0;" parent="1" vertex="1">
          <mxGeometry x="80" y="-1703" width="217" height="20" as="geometry" />
        </mxCell>
        <mxCell id="vF8Mc53fpWhSX6O-4FHy-58" value="&lt;h1&gt;&lt;font style=&quot;font-size: 18px&quot;&gt;标签和科研平台内其他相关功能的结构图：&lt;/font&gt;&lt;/h1&gt;" style="text;html=1;strokeColor=none;fillColor=none;align=center;verticalAlign=middle;whiteSpace=wrap;rounded=0;" parent="1" vertex="1">
          <mxGeometry x="86" y="-1377" width="390" height="20" as="geometry" />
        </mxCell>
        <mxCell id="gbj-Aj7GcS96Cu6Ub37i-7" style="edgeStyle=orthogonalEdgeStyle;curved=1;rounded=0;orthogonalLoop=1;jettySize=auto;html=1;exitX=1;exitY=0.5;exitDx=0;exitDy=0;entryX=0;entryY=0.5;entryDx=0;entryDy=0;dashed=1;exitPerimeter=0;" parent="1" source="vF8Mc53fpWhSX6O-4FHy-13" edge="1">
          <mxGeometry relative="1" as="geometry">
            <mxPoint x="159" y="-1569.94" as="sourcePoint" />
            <mxPoint x="466" y="-1564.94" as="targetPoint" />
            <Array as="points">
              <mxPoint x="317" y="-1571" />
              <mxPoint x="317" y="-1598" />
              <mxPoint x="466" y="-1598" />
            </Array>
          </mxGeometry>
        </mxCell>
        <mxCell id="gbj-Aj7GcS96Cu6Ub37i-8" value="用户手动配置" style="edgeLabel;html=1;align=center;verticalAlign=middle;resizable=0;points=[];fontStyle=2" parent="gbj-Aj7GcS96Cu6Ub37i-7" vertex="1" connectable="0">
          <mxGeometry x="0.0226" y="2" relative="1" as="geometry">
            <mxPoint as="offset" />
          </mxGeometry>
        </mxCell>
        <mxCell id="gbj-Aj7GcS96Cu6Ub37i-9" style="edgeStyle=orthogonalEdgeStyle;curved=1;rounded=0;orthogonalLoop=1;jettySize=auto;html=1;entryX=0;entryY=0.5;entryDx=0;entryDy=0;" parent="1" edge="1">
          <mxGeometry relative="1" as="geometry">
            <mxPoint x="271" y="-1570" as="sourcePoint" />
            <mxPoint x="466" y="-1564.94" as="targetPoint" />
            <Array as="points">
              <mxPoint x="316" y="-1570" />
              <mxPoint x="316" y="-1544" />
              <mxPoint x="466" y="-1544" />
            </Array>
          </mxGeometry>
        </mxCell>
        <mxCell id="gbj-Aj7GcS96Cu6Ub37i-10" value="规则转换" style="edgeLabel;html=1;align=center;verticalAlign=middle;resizable=0;points=[];" parent="gbj-Aj7GcS96Cu6Ub37i-9" vertex="1" connectable="0">
          <mxGeometry x="0.0592" y="-1" relative="1" as="geometry">
            <mxPoint as="offset" />
          </mxGeometry>
        </mxCell>
        <mxCell id="gbj-Aj7GcS96Cu6Ub37i-11" value="&lt;font color=&quot;#ff3333&quot;&gt;&lt;i&gt;本次不做&lt;/i&gt;&lt;/font&gt;" style="text;html=1;strokeColor=none;fillColor=none;align=center;verticalAlign=middle;whiteSpace=wrap;rounded=0;" parent="1" vertex="1">
          <mxGeometry x="318" y="-1280" width="91" height="20" as="geometry" />
        </mxCell>
        <mxCell id="gbj-Aj7GcS96Cu6Ub37i-15" value="&lt;font color=&quot;#ff3333&quot;&gt;&lt;i&gt;本次不做&lt;/i&gt;&lt;/font&gt;" style="text;html=1;strokeColor=none;fillColor=none;align=center;verticalAlign=middle;whiteSpace=wrap;rounded=0;" parent="1" vertex="1">
          <mxGeometry x="333" y="-1631" width="91" height="20" as="geometry" />
        </mxCell>
        <mxCell id="gbj-Aj7GcS96Cu6Ub37i-31" value="项目1" style="text;html=1;strokeColor=none;fillColor=none;align=center;verticalAlign=middle;whiteSpace=wrap;rounded=0;" parent="1" vertex="1">
          <mxGeometry x="1502" y="-1651" width="40" height="20" as="geometry" />
        </mxCell>
        <mxCell id="gbj-Aj7GcS96Cu6Ub37i-26" value="信息b" style="rounded=0;whiteSpace=wrap;html=1;" parent="1" vertex="1">
          <mxGeometry x="1508" y="-1579" width="38" height="20" as="geometry" />
        </mxCell>
        <mxCell id="gbj-Aj7GcS96Cu6Ub37i-25" value="信息a" style="rounded=0;whiteSpace=wrap;html=1;" parent="1" vertex="1">
          <mxGeometry x="1466" y="-1579" width="38" height="20" as="geometry" />
        </mxCell>
        <mxCell id="gbj-Aj7GcS96Cu6Ub37i-34" value="患者001" style="text;html=1;strokeColor=none;fillColor=none;align=center;verticalAlign=middle;whiteSpace=wrap;rounded=0;" parent="1" vertex="1">
          <mxGeometry x="1465" y="-1608" width="56" height="20" as="geometry" />
        </mxCell>
        <mxCell id="gbj-Aj7GcS96Cu6Ub37i-35" value="..." style="text;html=1;strokeColor=none;fillColor=none;align=center;verticalAlign=middle;whiteSpace=wrap;rounded=0;" parent="1" vertex="1">
          <mxGeometry x="1539" y="-1579" width="40" height="20" as="geometry" />
        </mxCell>
        <mxCell id="gbj-Aj7GcS96Cu6Ub37i-36" value="" style="rounded=1;whiteSpace=wrap;html=1;" parent="1" vertex="1">
          <mxGeometry x="1459" y="-1542" width="120" height="60" as="geometry" />
        </mxCell>
        <mxCell id="gbj-Aj7GcS96Cu6Ub37i-37" value="信息f" style="rounded=0;whiteSpace=wrap;html=1;" parent="1" vertex="1">
          <mxGeometry x="1508" y="-1507" width="38" height="20" as="geometry" />
        </mxCell>
        <mxCell id="gbj-Aj7GcS96Cu6Ub37i-38" value="信息e" style="rounded=0;whiteSpace=wrap;html=1;" parent="1" vertex="1">
          <mxGeometry x="1466" y="-1507" width="38" height="20" as="geometry" />
        </mxCell>
        <mxCell id="gbj-Aj7GcS96Cu6Ub37i-39" value="患者002" style="text;html=1;strokeColor=none;fillColor=none;align=center;verticalAlign=middle;whiteSpace=wrap;rounded=0;" parent="1" vertex="1">
          <mxGeometry x="1465" y="-1536" width="56" height="20" as="geometry" />
        </mxCell>
        <mxCell id="gbj-Aj7GcS96Cu6Ub37i-40" value="..." style="text;html=1;strokeColor=none;fillColor=none;align=center;verticalAlign=middle;whiteSpace=wrap;rounded=0;" parent="1" vertex="1">
          <mxGeometry x="1539" y="-1507" width="40" height="20" as="geometry" />
        </mxCell>
        <mxCell id="gbj-Aj7GcS96Cu6Ub37i-41" value="" style="rounded=1;whiteSpace=wrap;html=1;" parent="1" vertex="1">
          <mxGeometry x="1459" y="-1470" width="120" height="31" as="geometry" />
        </mxCell>
        <mxCell id="gbj-Aj7GcS96Cu6Ub37i-44" value="患者..." style="text;html=1;strokeColor=none;fillColor=none;align=center;verticalAlign=middle;whiteSpace=wrap;rounded=0;" parent="1" vertex="1">
          <mxGeometry x="1465" y="-1464" width="56" height="20" as="geometry" />
        </mxCell>
        <mxCell id="gbj-Aj7GcS96Cu6Ub37i-46" value="标签池1" style="text;html=1;strokeColor=none;fillColor=none;align=center;verticalAlign=middle;whiteSpace=wrap;rounded=0;fontSize=19;" parent="1" vertex="1">
          <mxGeometry x="1488" y="-1381" width="86" height="17" as="geometry" />
        </mxCell>
        <mxCell id="gbj-Aj7GcS96Cu6Ub37i-48" value="" style="rounded=1;whiteSpace=wrap;html=1;" parent="1" vertex="1">
          <mxGeometry x="1710" y="-1653" width="157" height="263" as="geometry" />
        </mxCell>
        <mxCell id="gbj-Aj7GcS96Cu6Ub37i-49" value="" style="rounded=1;whiteSpace=wrap;html=1;" parent="1" vertex="1">
          <mxGeometry x="1727" y="-1614" width="120" height="60" as="geometry" />
        </mxCell>
        <mxCell id="gbj-Aj7GcS96Cu6Ub37i-50" value="项目2" style="text;html=1;strokeColor=none;fillColor=none;align=center;verticalAlign=middle;whiteSpace=wrap;rounded=0;" parent="1" vertex="1">
          <mxGeometry x="1767" y="-1651" width="40" height="20" as="geometry" />
        </mxCell>
        <mxCell id="gbj-Aj7GcS96Cu6Ub37i-51" value="标签g" style="rounded=0;whiteSpace=wrap;html=1;" parent="1" vertex="1">
          <mxGeometry x="1776" y="-1579" width="38" height="20" as="geometry" />
        </mxCell>
        <mxCell id="gbj-Aj7GcS96Cu6Ub37i-52" value="标签a" style="rounded=0;whiteSpace=wrap;html=1;" parent="1" vertex="1">
          <mxGeometry x="1734" y="-1579" width="38" height="20" as="geometry" />
        </mxCell>
        <mxCell id="gbj-Aj7GcS96Cu6Ub37i-53" value="患者001" style="text;html=1;strokeColor=none;fillColor=none;align=center;verticalAlign=middle;whiteSpace=wrap;rounded=0;" parent="1" vertex="1">
          <mxGeometry x="1733" y="-1608" width="56" height="20" as="geometry" />
        </mxCell>
        <mxCell id="gbj-Aj7GcS96Cu6Ub37i-54" value="..." style="text;html=1;strokeColor=none;fillColor=none;align=center;verticalAlign=middle;whiteSpace=wrap;rounded=0;" parent="1" vertex="1">
          <mxGeometry x="1807" y="-1579" width="40" height="20" as="geometry" />
        </mxCell>
        <mxCell id="gbj-Aj7GcS96Cu6Ub37i-55" value="" style="rounded=1;whiteSpace=wrap;html=1;" parent="1" vertex="1">
          <mxGeometry x="1727" y="-1542" width="120" height="60" as="geometry" />
        </mxCell>
        <mxCell id="gbj-Aj7GcS96Cu6Ub37i-56" value="标签i" style="rounded=0;whiteSpace=wrap;html=1;" parent="1" vertex="1">
          <mxGeometry x="1776" y="-1507" width="38" height="20" as="geometry" />
        </mxCell>
        <mxCell id="gbj-Aj7GcS96Cu6Ub37i-57" value="标签h" style="rounded=0;whiteSpace=wrap;html=1;" parent="1" vertex="1">
          <mxGeometry x="1734" y="-1507" width="38" height="20" as="geometry" />
        </mxCell>
        <mxCell id="gbj-Aj7GcS96Cu6Ub37i-58" value="患者002" style="text;html=1;strokeColor=none;fillColor=none;align=center;verticalAlign=middle;whiteSpace=wrap;rounded=0;" parent="1" vertex="1">
          <mxGeometry x="1733" y="-1536" width="56" height="20" as="geometry" />
        </mxCell>
        <mxCell id="gbj-Aj7GcS96Cu6Ub37i-59" value="..." style="text;html=1;strokeColor=none;fillColor=none;align=center;verticalAlign=middle;whiteSpace=wrap;rounded=0;" parent="1" vertex="1">
          <mxGeometry x="1806" y="-1507" width="41" height="20" as="geometry" />
        </mxCell>
        <mxCell id="gbj-Aj7GcS96Cu6Ub37i-60" value="" style="rounded=1;whiteSpace=wrap;html=1;" parent="1" vertex="1">
          <mxGeometry x="1727" y="-1470" width="120" height="31" as="geometry" />
        </mxCell>
        <mxCell id="gbj-Aj7GcS96Cu6Ub37i-61" value="患者..." style="text;html=1;strokeColor=none;fillColor=none;align=center;verticalAlign=middle;whiteSpace=wrap;rounded=0;" parent="1" vertex="1">
          <mxGeometry x="1733" y="-1464" width="56" height="20" as="geometry" />
        </mxCell>
        <mxCell id="gbj-Aj7GcS96Cu6Ub37i-62" value="标签池2" style="text;html=1;strokeColor=none;fillColor=none;align=center;verticalAlign=middle;whiteSpace=wrap;rounded=0;fontSize=19;" parent="1" vertex="1">
          <mxGeometry x="1756" y="-1381" width="86" height="17" as="geometry" />
        </mxCell>
        <mxCell id="gbj-Aj7GcS96Cu6Ub37i-77" value="...&amp;nbsp; &amp;nbsp; 标签池n" style="text;html=1;strokeColor=none;fillColor=none;align=center;verticalAlign=middle;whiteSpace=wrap;rounded=0;fontSize=19;" parent="1" vertex="1">
          <mxGeometry x="1912" y="-1381" width="156" height="16" as="geometry" />
        </mxCell>
        <mxCell id="gbj-Aj7GcS96Cu6Ub37i-79" value="数据不互通" style="text;html=1;strokeColor=none;fillColor=none;align=center;verticalAlign=middle;whiteSpace=wrap;rounded=0;" parent="1" vertex="1">
          <mxGeometry x="1618" y="-1534" width="74" height="10" as="geometry" />
        </mxCell>
        <mxCell id="gbj-Aj7GcS96Cu6Ub37i-80" value="&lt;h1&gt;&lt;font style=&quot;font-size: 18px&quot;&gt;标签体系：&lt;/font&gt;&lt;/h1&gt;" style="text;html=1;strokeColor=none;fillColor=none;align=center;verticalAlign=middle;whiteSpace=wrap;rounded=0;" parent="1" vertex="1">
          <mxGeometry x="1368" y="-1700" width="217" height="20" as="geometry" />
        </mxCell>
        <mxCell id="gbj-Aj7GcS96Cu6Ub37i-81" value="" style="rounded=1;whiteSpace=wrap;html=1;" parent="1" vertex="1">
          <mxGeometry x="1929" y="-1660.5" width="157" height="263" as="geometry" />
        </mxCell>
        <mxCell id="gbj-Aj7GcS96Cu6Ub37i-82" value="" style="rounded=1;whiteSpace=wrap;html=1;" parent="1" vertex="1">
          <mxGeometry x="1946" y="-1621.5" width="120" height="60" as="geometry" />
        </mxCell>
        <mxCell id="gbj-Aj7GcS96Cu6Ub37i-83" value="项目n" style="text;html=1;strokeColor=none;fillColor=none;align=center;verticalAlign=middle;whiteSpace=wrap;rounded=0;" parent="1" vertex="1">
          <mxGeometry x="1986" y="-1658.5" width="40" height="20" as="geometry" />
        </mxCell>
        <mxCell id="gbj-Aj7GcS96Cu6Ub37i-84" value="标签k" style="rounded=0;whiteSpace=wrap;html=1;" parent="1" vertex="1">
          <mxGeometry x="1995" y="-1586.5" width="38" height="20" as="geometry" />
        </mxCell>
        <mxCell id="gbj-Aj7GcS96Cu6Ub37i-85" value="标签a" style="rounded=0;whiteSpace=wrap;html=1;" parent="1" vertex="1">
          <mxGeometry x="1953" y="-1586.5" width="38" height="20" as="geometry" />
        </mxCell>
        <mxCell id="gbj-Aj7GcS96Cu6Ub37i-86" value="患者001" style="text;html=1;strokeColor=none;fillColor=none;align=center;verticalAlign=middle;whiteSpace=wrap;rounded=0;" parent="1" vertex="1">
          <mxGeometry x="1952" y="-1615.5" width="56" height="20" as="geometry" />
        </mxCell>
        <mxCell id="gbj-Aj7GcS96Cu6Ub37i-87" value="..." style="text;html=1;strokeColor=none;fillColor=none;align=center;verticalAlign=middle;whiteSpace=wrap;rounded=0;" parent="1" vertex="1">
          <mxGeometry x="2026" y="-1586.5" width="40" height="20" as="geometry" />
        </mxCell>
        <mxCell id="gbj-Aj7GcS96Cu6Ub37i-88" value="" style="rounded=1;whiteSpace=wrap;html=1;" parent="1" vertex="1">
          <mxGeometry x="1946" y="-1549.5" width="120" height="60" as="geometry" />
        </mxCell>
        <mxCell id="gbj-Aj7GcS96Cu6Ub37i-89" value="标签m" style="rounded=0;whiteSpace=wrap;html=1;" parent="1" vertex="1">
          <mxGeometry x="1995" y="-1514.5" width="38" height="20" as="geometry" />
        </mxCell>
        <mxCell id="gbj-Aj7GcS96Cu6Ub37i-90" value="标签h" style="rounded=0;whiteSpace=wrap;html=1;" parent="1" vertex="1">
          <mxGeometry x="1953" y="-1514.5" width="38" height="20" as="geometry" />
        </mxCell>
        <mxCell id="gbj-Aj7GcS96Cu6Ub37i-91" value="患者002" style="text;html=1;strokeColor=none;fillColor=none;align=center;verticalAlign=middle;whiteSpace=wrap;rounded=0;" parent="1" vertex="1">
          <mxGeometry x="1952" y="-1543.5" width="56" height="20" as="geometry" />
        </mxCell>
        <mxCell id="gbj-Aj7GcS96Cu6Ub37i-92" value="..." style="text;html=1;strokeColor=none;fillColor=none;align=center;verticalAlign=middle;whiteSpace=wrap;rounded=0;" parent="1" vertex="1">
          <mxGeometry x="2025" y="-1514.5" width="41" height="20" as="geometry" />
        </mxCell>
        <mxCell id="gbj-Aj7GcS96Cu6Ub37i-93" value="" style="rounded=1;whiteSpace=wrap;html=1;" parent="1" vertex="1">
          <mxGeometry x="1946" y="-1477.5" width="120" height="31" as="geometry" />
        </mxCell>
        <mxCell id="gbj-Aj7GcS96Cu6Ub37i-94" value="患者..." style="text;html=1;strokeColor=none;fillColor=none;align=center;verticalAlign=middle;whiteSpace=wrap;rounded=0;" parent="1" vertex="1">
          <mxGeometry x="1952" y="-1471.5" width="56" height="20" as="geometry" />
        </mxCell>
        <mxCell id="gbj-Aj7GcS96Cu6Ub37i-99" value="选取数据" style="text;html=1;align=center;verticalAlign=middle;whiteSpace=wrap;rounded=0;fontStyle=0" parent="1" vertex="1">
          <mxGeometry x="551" y="-1611" width="110" height="50" as="geometry" />
        </mxCell>
      </root>
    </mxGraphModel>
  </diagram>
</mxfile>
